<svg xmlns="http://www.w3.org/2000/svg" width="256" height="256" viewBox="0 0 256 256" role="img" aria-labelledby="title desc">
  <title id="title">CasioEmuMsvc</title>
  <desc id="desc">Biểu tượng CasioEmuMsvc với hình máy tính và nhân vật ở giữa.</desc>
  <defs>
    <linearGradient id="bg" x1="0" y1="0" x2="1" y2="1">
      <stop offset="0%" stop-color="#111827"/>
      <stop offset="100%" stop-color="#374151"/>
    </linearGradient>
    <linearGradient id="calc" x1="0" y1="0" x2="0" y2="1">
      <stop offset="0%" stop-color="#f3f4f6"/>
      <stop offset="100%" stop-color="#d1d5db"/>
    </linearGradient>
  </defs>
  <rect width="256" height="256" rx="48" fill="url(#bg)"/>
  <rect x="48" y="28" width="160" height="200" rx="22" fill="url(#calc)" stroke="#9ca3af" stroke-width="5"/>
  <rect x="68" y="50" width="120" height="48" rx="8" fill="#111827"/>
  <text x="128" y="81" text-anchor="middle" font-family="Arial, Helvetica, sans-serif" font-size="20" font-weight="700" fill="#f9fafb">CasioEmu</text>
  <circle cx="128" cy="128" r="24" fill="#6b7280"/>
  <path d="M92 185c7-26 25-38 36-38s29 12 36 38" fill="#6b7280"/>
  <circle cx="119" cy="124" r="3" fill="#f9fafb"/>
  <circle cx="137" cy="124" r="3" fill="#f9fafb"/>
  <path d="M120 137c5 4 11 4 16 0" fill="none" stroke="#f9fafb" stroke-width="3" stroke-linecap="round"/>
  <g fill="#4b5563">
    <rect x="70" y="192" width="24" height="12" rx="4"/>
    <rect x="101" y="192" width="24" height="12" rx="4"/>
    <rect x="132" y="192" width="24" height="12" rx="4"/>
    <rect x="163" y="192" width="24" height="12" rx="4"/>
  </g>
</svg>